<svg width="20" height="20" viewBox="0 0 20 20" fill="none" xmlns="http://www.w3.org/2000/svg">
<g clip-path="url(#clip0_1969_26548)">
<path d="M28.9949 19.9967H-0.473748C-0.764355 19.9967 -1 19.761 -1 19.4704V0.526252C-1 0.235645 -0.764355 0 -0.473748 0H28.995C29.2856 0 29.5212 0.235645 29.5212 0.526252V19.4704C29.5212 19.7611 29.2855 19.9967 28.9949 19.9967Z" fill="#F5F5F5"/>
<path d="M20 2H0V0.684208C0 0.306374 0.154414 0 0.344843 0H19.6552C19.8456 0 20 0.306374 20 0.684208L20 2Z" fill="#FF4B55"/>
<path d="M20 6H0V8H20V6Z" fill="#FF4B55"/>
<path d="M20 3H0V5H20V3Z" fill="#FF4B55"/>
<path d="M20 11H0.344844C0.154414 11 0 10.6936 0 10.3158V9H20V11Z" fill="#FF4B55"/>
<path d="M20 15H0V17H20V15Z" fill="#FF4B55"/>
<path d="M19.6552 20H0.344844C0.154414 20 0 19.6936 0 19.3158V18H20V19.3158C20 19.6937 19.8456 20 19.6552 20Z" fill="#FF4B55"/>
<path d="M20 12H0V14H20V12Z" fill="#FF4B55"/>
<path d="M12.6819 0H-0.473748C-0.764355 0 -1 0.235585 -1 0.526192V10.2411C-1 10.5317 -0.764355 10.7674 -0.473748 10.7674H12.682C12.9726 10.7674 13.2082 10.5317 13.2082 10.2411V0.526192C13.2081 0.235585 12.9725 0 12.6819 0Z" fill="#41479B"/>
<path d="M0.478187 1.20446L0.594668 1.55378L0.962889 1.55658C1.01058 1.557 1.03031 1.61781 0.991979 1.64612L0.695769 1.8649L0.806885 2.21595C0.821311 2.26137 0.769509 2.29905 0.730702 2.27127L0.431153 2.0572L0.131605 2.27133C0.0927979 2.29905 0.0411146 2.26143 0.0554214 2.21601L0.166537 1.86496L-0.129673 1.64618C-0.168003 1.61781 -0.148271 1.55706 -0.100582 1.55664L0.267639 1.55384L0.38412 1.20452C0.399142 1.15921 0.463045 1.15921 0.478187 1.20446Z" fill="#F5F5F5"/>
<path d="M0.478187 3.03535L0.594668 3.38467L0.962889 3.38747C1.01058 3.38789 1.03031 3.44869 0.991979 3.47701L0.695769 3.69578L0.806885 4.04684C0.821311 4.09226 0.769509 4.12993 0.730702 4.10216L0.431153 3.88809L0.131605 4.10222C0.0927979 4.12993 0.0411146 4.09232 0.0554214 4.0469L0.166537 3.69584L-0.129673 3.47707C-0.168003 3.44869 -0.148271 3.38795 -0.100582 3.38753L0.267639 3.38473L0.38412 3.03541C0.399142 2.99016 0.463045 2.99016 0.478187 3.03535Z" fill="#F5F5F5"/>
<path d="M0.478187 4.85651L0.594668 5.20584L0.962889 5.20864C1.01058 5.20906 1.03031 5.26986 0.991979 5.29818L0.695769 5.51696L0.806885 5.86801C0.821311 5.91344 0.769509 5.95111 0.730702 5.92333L0.431153 5.70926L0.131605 5.92339C0.0927979 5.95111 0.0411146 5.9135 0.0554214 5.86807L0.166537 5.51702L-0.129673 5.29824C-0.168003 5.26986 -0.148271 5.20912 -0.100582 5.2087L0.267639 5.2059L0.38412 4.85657C0.399142 4.81133 0.463045 4.81133 0.478187 4.85651Z" fill="#F5F5F5"/>
<path d="M0.478187 6.68859L0.594668 7.03791L0.962889 7.04072C1.01058 7.04113 1.03031 7.10194 0.991979 7.13025L0.695769 7.34903L0.806885 7.70008C0.821311 7.74551 0.769509 7.78318 0.730702 7.7554L0.431153 7.54134L0.131605 7.75546C0.0927979 7.78318 0.0411146 7.74557 0.0554214 7.70014L0.166537 7.34909L-0.129673 7.13031C-0.168003 7.10194 -0.148271 7.04119 -0.100582 7.04078L0.267639 7.03797L0.38412 6.68865C0.399142 6.64334 0.463045 6.64334 0.478187 6.68859Z" fill="#F5F5F5"/>
<path d="M0.478187 8.50968L0.594668 8.85901L0.962889 8.86181C1.01058 8.86222 1.03031 8.92303 0.991979 8.95134L0.695769 9.17012L0.806885 9.52118C0.821311 9.5666 0.769509 9.60428 0.730702 9.5765L0.431153 9.36243L0.131605 9.57656C0.0927979 9.60428 0.0411146 9.56666 0.0554214 9.52124L0.166537 9.17018L-0.129673 8.9514C-0.168003 8.92303 -0.148271 8.86228 -0.100582 8.86187L0.267639 8.85907L0.38412 8.50974C0.399142 8.46437 0.463045 8.46437 0.478187 8.50968Z" fill="#F5F5F5"/>
<path d="M1.89616 2.09773L2.01264 2.44706L2.38086 2.44986C2.42855 2.45028 2.44828 2.51108 2.40995 2.53939L2.11374 2.75817L2.22485 3.10922C2.23928 3.15465 2.18748 3.19232 2.14867 3.16454L1.84912 2.95042L1.54957 3.16454C1.51077 3.19226 1.45908 3.15465 1.47339 3.10922L1.58451 2.75817L1.2883 2.53939C1.24997 2.51102 1.2697 2.45028 1.31739 2.44986L1.68561 2.44706L1.80209 2.09773C1.81705 2.05255 1.88107 2.05255 1.89616 2.09773Z" fill="#F5F5F5"/>
<path d="M1.89616 3.92981L2.01264 4.27913L2.38086 4.28193C2.42855 4.28235 2.44828 4.34315 2.40995 4.37147L2.11374 4.59024L2.22485 4.94129C2.23928 4.98671 2.18748 5.02439 2.14867 4.99661L1.84912 4.78249L1.54957 4.99661C1.51077 5.02433 1.45908 4.98677 1.47339 4.94129L1.58451 4.59024L1.2883 4.37147C1.24997 4.34309 1.2697 4.28235 1.31739 4.28193L1.68561 4.27913L1.80209 3.92981C1.81705 3.88456 1.88107 3.88456 1.89616 3.92981Z" fill="#F5F5F5"/>
<path d="M1.89616 5.75085L2.01264 6.10018L2.38086 6.10298C2.42855 6.1034 2.44828 6.1642 2.40995 6.19252L2.11374 6.41129L2.22485 6.76234C2.23928 6.80777 2.18748 6.84544 2.14867 6.81766L1.84912 6.60354L1.54957 6.81766C1.51077 6.84538 1.45908 6.80777 1.47339 6.76234L1.58451 6.41129L1.2883 6.19252C1.24997 6.16414 1.2697 6.1034 1.31739 6.10298L1.68561 6.10018L1.80209 5.75085C1.81705 5.70561 1.88107 5.70561 1.89616 5.75085Z" fill="#F5F5F5"/>
<path d="M1.89616 7.58284L2.01264 7.93216L2.38086 7.93497C2.42855 7.93538 2.44828 7.99619 2.40995 8.0245L2.11374 8.24328L2.22485 8.59433C2.23928 8.63975 2.18748 8.67743 2.14867 8.64965L1.84912 8.43553L1.54957 8.64965C1.51077 8.67737 1.45908 8.63975 1.47339 8.59433L1.58451 8.24328L1.2883 8.0245C1.24997 7.99613 1.2697 7.93538 1.31739 7.93497L1.68561 7.93216L1.80209 7.58284C1.81705 7.53765 1.88107 7.53765 1.89616 7.58284Z" fill="#F5F5F5"/>
<path d="M3.31486 1.20349L3.43134 1.55281L3.79956 1.55561C3.84725 1.55603 3.86699 1.61683 3.82866 1.64515L3.53244 1.86392L3.64356 2.21498C3.65799 2.2604 3.60618 2.29807 3.56738 2.27029L3.26783 2.05617L2.96828 2.27029C2.92947 2.29801 2.87779 2.2604 2.89209 2.21498L3.00321 1.86392L2.707 1.64515C2.66867 1.61678 2.6884 1.55603 2.73609 1.55561L3.10431 1.55281L3.22079 1.20349C3.23581 1.15824 3.29978 1.15824 3.31486 1.20349Z" fill="#F5F5F5"/>
<path d="M3.31486 3.03535L3.43134 3.38468L3.79956 3.38748C3.84725 3.3879 3.86699 3.4487 3.82866 3.47702L3.53244 3.69579L3.64356 4.04684C3.65799 4.09227 3.60618 4.12994 3.56738 4.10216L3.26783 3.88804L2.96828 4.10216C2.92947 4.12988 2.87779 4.09227 2.89209 4.04684L3.00321 3.69579L2.707 3.47702C2.66867 3.44864 2.6884 3.3879 2.73609 3.38748L3.10431 3.38468L3.22079 3.03535C3.23581 2.99017 3.29978 2.99017 3.31486 3.03535Z" fill="#F5F5F5"/>
<path d="M3.31486 4.85652L3.43134 5.20585L3.79956 5.20865C3.84725 5.20907 3.86699 5.26987 3.82866 5.29819L3.53244 5.51697L3.64356 5.86802C3.65799 5.91345 3.60618 5.95112 3.56738 5.92334L3.26783 5.70922L2.96828 5.92334C2.92947 5.95106 2.87779 5.91345 2.89209 5.86802L3.00321 5.51697L2.707 5.29819C2.66867 5.26981 2.6884 5.20907 2.73609 5.20865L3.10431 5.20585L3.22079 4.85652C3.23581 4.81134 3.29978 4.81134 3.31486 4.85652Z" fill="#F5F5F5"/>
<path d="M3.31486 6.6886L3.43134 7.03792L3.79956 7.04072C3.84725 7.04114 3.86699 7.10194 3.82866 7.13026L3.53244 7.34903L3.64356 7.70009C3.65799 7.74551 3.60618 7.78319 3.56738 7.75541L3.26783 7.54128L2.96828 7.75541C2.92947 7.78313 2.87779 7.74551 2.89209 7.70009L3.00321 7.34903L2.707 7.13026C2.66867 7.10188 2.6884 7.04114 2.73609 7.04072L3.10431 7.03792L3.22079 6.6886C3.23581 6.64335 3.29978 6.64335 3.31486 6.6886Z" fill="#F5F5F5"/>
<path d="M3.31486 8.50969L3.43134 8.85901L3.79956 8.86181C3.84725 8.86223 3.86699 8.92304 3.82866 8.95135L3.53244 9.17013L3.64356 9.52118C3.65799 9.56661 3.60618 9.60428 3.56738 9.5765L3.26783 9.36238L2.96828 9.5765C2.92947 9.60422 2.87779 9.56661 2.89209 9.52118L3.00321 9.17013L2.707 8.95135C2.66867 8.92298 2.6884 8.86223 2.73609 8.86181L3.10431 8.85901L3.22079 8.50969C3.23581 8.46438 3.29978 8.46438 3.31486 8.50969Z" fill="#F5F5F5"/>
<path d="M4.73356 2.09773L4.85004 2.44706L5.21826 2.44986C5.26595 2.45028 5.28568 2.51108 5.24735 2.53939L4.95114 2.75817L5.06226 3.10922C5.07668 3.15465 5.02488 3.19232 4.98607 3.16454L4.68652 2.95042L4.38698 3.16454C4.34817 3.19226 4.29649 3.15465 4.31079 3.10922L4.42191 2.75817L4.1257 2.53939C4.08737 2.51102 4.1071 2.45028 4.15479 2.44986L4.52301 2.44706L4.63949 2.09773C4.65445 2.05255 4.71848 2.05255 4.73356 2.09773Z" fill="#F5F5F5"/>
<path d="M4.73356 3.92981L4.85004 4.27913L5.21826 4.28193C5.26595 4.28235 5.28568 4.34315 5.24735 4.37147L4.95114 4.59024L5.06226 4.94129C5.07668 4.98671 5.02488 5.02439 4.98607 4.99661L4.68652 4.78249L4.38698 4.99661C4.34817 5.02433 4.29649 4.98677 4.31079 4.94129L4.42191 4.59024L4.1257 4.37147C4.08737 4.34309 4.1071 4.28235 4.15479 4.28193L4.52301 4.27913L4.63949 3.92981C4.65445 3.88456 4.71848 3.88456 4.73356 3.92981Z" fill="#F5F5F5"/>
<path d="M4.73356 5.75085L4.85004 6.10018L5.21826 6.10298C5.26595 6.1034 5.28568 6.1642 5.24735 6.19252L4.95114 6.41129L5.06226 6.76234C5.07668 6.80777 5.02488 6.84544 4.98607 6.81766L4.68652 6.60354L4.38698 6.81766C4.34817 6.84538 4.29649 6.80777 4.31079 6.76234L4.42191 6.41129L4.1257 6.19252C4.08737 6.16414 4.1071 6.1034 4.15479 6.10298L4.52301 6.10018L4.63949 5.75085C4.65445 5.70561 4.71848 5.70561 4.73356 5.75085Z" fill="#F5F5F5"/>
<path d="M4.73356 7.58284L4.85004 7.93216L5.21826 7.93497C5.26595 7.93538 5.28568 7.99619 5.24735 8.0245L4.95114 8.24328L5.06226 8.59433C5.07668 8.63975 5.02488 8.67743 4.98607 8.64965L4.68652 8.43553L4.38698 8.64965C4.34817 8.67737 4.29649 8.63975 4.31079 8.59433L4.42191 8.24328L4.1257 8.0245C4.08737 7.99613 4.1071 7.93538 4.15479 7.93497L4.52301 7.93216L4.63949 7.58284C4.65445 7.53765 4.71848 7.53765 4.73356 7.58284Z" fill="#F5F5F5"/>
<path d="M6.15159 1.20349L6.26807 1.55281L6.63629 1.55561C6.68398 1.55603 6.70371 1.61683 6.66538 1.64515L6.36917 1.86392L6.48029 2.21498C6.49471 2.2604 6.44291 2.29807 6.4041 2.27029L6.10449 2.05617L5.80495 2.27029C5.76614 2.29801 5.71446 2.2604 5.72876 2.21498L5.83988 1.86392L5.54367 1.64515C5.50534 1.61678 5.52507 1.55603 5.57276 1.55561L5.94098 1.55281L6.05746 1.20349C6.07254 1.15824 6.13651 1.15824 6.15159 1.20349Z" fill="#F5F5F5"/>
<path d="M6.15159 3.03535L6.26807 3.38468L6.63629 3.38748C6.68398 3.3879 6.70371 3.4487 6.66538 3.47702L6.36917 3.69579L6.48029 4.04684C6.49471 4.09227 6.44291 4.12994 6.4041 4.10216L6.10449 3.88804L5.80495 4.10216C5.76614 4.12988 5.71446 4.09227 5.72876 4.04684L5.83988 3.69579L5.54367 3.47702C5.50534 3.44864 5.52507 3.3879 5.57276 3.38748L5.94098 3.38468L6.05746 3.03535C6.07254 2.99017 6.13651 2.99017 6.15159 3.03535Z" fill="#F5F5F5"/>
<path d="M6.15159 4.85652L6.26807 5.20585L6.63629 5.20865C6.68398 5.20907 6.70371 5.26987 6.66538 5.29819L6.36917 5.51697L6.48029 5.86802C6.49471 5.91345 6.44291 5.95112 6.4041 5.92334L6.10449 5.70922L5.80495 5.92334C5.76614 5.95106 5.71446 5.91345 5.72876 5.86802L5.83988 5.51697L5.54367 5.29819C5.50534 5.26981 5.52507 5.20907 5.57276 5.20865L5.94098 5.20585L6.05746 4.85652C6.07254 4.81134 6.13651 4.81134 6.15159 4.85652Z" fill="#F5F5F5"/>
<path d="M6.15159 6.6886L6.26807 7.03792L6.63629 7.04072C6.68398 7.04114 6.70371 7.10194 6.66538 7.13026L6.36917 7.34903L6.48029 7.70009C6.49471 7.74551 6.44291 7.78319 6.4041 7.75541L6.10449 7.54128L5.80495 7.75541C5.76614 7.78313 5.71446 7.74551 5.72876 7.70009L5.83988 7.34903L5.54367 7.13026C5.50534 7.10188 5.52507 7.04114 5.57276 7.04072L5.94098 7.03792L6.05746 6.6886C6.07254 6.64335 6.13651 6.64335 6.15159 6.6886Z" fill="#F5F5F5"/>
<path d="M6.15159 8.50969L6.26807 8.85901L6.63629 8.86181C6.68398 8.86223 6.70371 8.92304 6.66538 8.95135L6.36917 9.17013L6.48029 9.52118C6.49471 9.56661 6.44291 9.60428 6.4041 9.5765L6.10449 9.36238L5.80495 9.5765C5.76614 9.60422 5.71446 9.56661 5.72876 9.52118L5.83988 9.17013L5.54367 8.95135C5.50534 8.92298 5.52507 8.86223 5.57276 8.86181L5.94098 8.85901L6.05746 8.50969C6.07254 8.46438 6.13651 8.46438 6.15159 8.50969Z" fill="#F5F5F5"/>
<path d="M7.5695 2.09773L7.68598 2.44706L8.05421 2.44986C8.1019 2.45028 8.12163 2.51108 8.0833 2.53939L7.78708 2.75817L7.8982 3.10922C7.91263 3.15465 7.86082 3.19232 7.82202 3.16454L7.52247 2.95042L7.22292 3.16454C7.18411 3.19226 7.13242 3.15465 7.14673 3.10922L7.25785 2.75817L6.96164 2.53939C6.92331 2.51102 6.94304 2.45028 6.99073 2.44986L7.35895 2.44706L7.47543 2.09773C7.49051 2.05255 7.55442 2.05255 7.5695 2.09773Z" fill="#F5F5F5"/>
<path d="M7.5695 3.92981L7.68598 4.27913L8.05421 4.28193C8.1019 4.28235 8.12163 4.34315 8.0833 4.37147L7.78708 4.59024L7.8982 4.94129C7.91263 4.98671 7.86082 5.02439 7.82202 4.99661L7.52247 4.78249L7.22292 4.99661C7.18411 5.02433 7.13242 4.98677 7.14673 4.94129L7.25785 4.59024L6.96164 4.37147C6.92331 4.34309 6.94304 4.28235 6.99073 4.28193L7.35895 4.27913L7.47543 3.92981C7.49051 3.88456 7.55442 3.88456 7.5695 3.92981Z" fill="#F5F5F5"/>
<path d="M7.5695 5.75085L7.68598 6.10018L8.05421 6.10298C8.1019 6.1034 8.12163 6.1642 8.0833 6.19252L7.78708 6.41129L7.8982 6.76234C7.91263 6.80777 7.86082 6.84544 7.82202 6.81766L7.52247 6.60354L7.22292 6.81766C7.18411 6.84538 7.13242 6.80777 7.14673 6.76234L7.25785 6.41129L6.96164 6.19252C6.92331 6.16414 6.94304 6.1034 6.99073 6.10298L7.35895 6.10018L7.47543 5.75085C7.49051 5.70561 7.55442 5.70561 7.5695 5.75085Z" fill="#F5F5F5"/>
<path d="M7.5695 7.58284L7.68598 7.93216L8.05421 7.93497C8.1019 7.93538 8.12163 7.99619 8.0833 8.0245L7.78708 8.24328L7.8982 8.59433C7.91263 8.63975 7.86082 8.67743 7.82202 8.64965L7.52247 8.43553L7.22292 8.64965C7.18411 8.67737 7.13242 8.63975 7.14673 8.59433L7.25785 8.24328L6.96164 8.0245C6.92331 7.99613 6.94304 7.93538 6.99073 7.93497L7.35895 7.93216L7.47543 7.58284C7.49051 7.53765 7.55442 7.53765 7.5695 7.58284Z" fill="#F5F5F5"/>
<path d="M8.9882 1.20349L9.10468 1.55281L9.47291 1.55561C9.5206 1.55603 9.54033 1.61683 9.502 1.64515L9.20578 1.86392L9.3169 2.21498C9.33133 2.2604 9.27952 2.29807 9.24072 2.27029L8.94117 2.05617L8.64162 2.27029C8.60281 2.29801 8.55113 2.2604 8.56543 2.21498L8.67655 1.86392L8.38034 1.64515C8.34201 1.61678 8.36174 1.55603 8.40943 1.55561L8.77765 1.55281L8.89413 1.20349C8.9091 1.15824 8.97312 1.15824 8.9882 1.20349Z" fill="#F5F5F5"/>
<path d="M8.9882 3.03535L9.10468 3.38468L9.47291 3.38748C9.5206 3.3879 9.54033 3.4487 9.502 3.47702L9.20578 3.69579L9.3169 4.04684C9.33133 4.09227 9.27952 4.12994 9.24072 4.10216L8.94117 3.88804L8.64162 4.10216C8.60281 4.12988 8.55113 4.09227 8.56543 4.04684L8.67655 3.69579L8.38034 3.47702C8.34201 3.44864 8.36174 3.3879 8.40943 3.38748L8.77765 3.38468L8.89413 3.03535C8.9091 2.99017 8.97312 2.99017 8.9882 3.03535Z" fill="#F5F5F5"/>
<path d="M8.9882 4.85652L9.10468 5.20585L9.47291 5.20865C9.5206 5.20907 9.54033 5.26987 9.502 5.29819L9.20578 5.51697L9.3169 5.86802C9.33133 5.91345 9.27952 5.95112 9.24072 5.92334L8.94117 5.70922L8.64162 5.92334C8.60281 5.95106 8.55113 5.91345 8.56543 5.86802L8.67655 5.51697L8.38034 5.29819C8.34201 5.26981 8.36174 5.20907 8.40943 5.20865L8.77765 5.20585L8.89413 4.85652C8.9091 4.81134 8.97312 4.81134 8.9882 4.85652Z" fill="#F5F5F5"/>
<path d="M8.9882 6.6886L9.10468 7.03792L9.47291 7.04072C9.5206 7.04114 9.54033 7.10194 9.502 7.13026L9.20578 7.34903L9.3169 7.70009C9.33133 7.74551 9.27952 7.78319 9.24072 7.75541L8.94117 7.54128L8.64162 7.75541C8.60281 7.78313 8.55113 7.74551 8.56543 7.70009L8.67655 7.34903L8.38034 7.13026C8.34201 7.10188 8.36174 7.04114 8.40943 7.04072L8.77765 7.03792L8.89413 6.6886C8.9091 6.64335 8.97312 6.64335 8.9882 6.6886Z" fill="#F5F5F5"/>
<path d="M8.9882 8.50969L9.10468 8.85901L9.47291 8.86181C9.5206 8.86223 9.54033 8.92304 9.502 8.95135L9.20578 9.17013L9.3169 9.52118C9.33133 9.56661 9.27952 9.60428 9.24072 9.5765L8.94117 9.36238L8.64162 9.5765C8.60281 9.60422 8.55113 9.56661 8.56543 9.52118L8.67655 9.17013L8.38034 8.95135C8.34201 8.92298 8.36174 8.86223 8.40943 8.86181L8.77765 8.85901L8.89413 8.50969C8.9091 8.46438 8.97312 8.46438 8.9882 8.50969Z" fill="#F5F5F5"/>
<path d="M10.4064 2.09773L10.5229 2.44706L10.8911 2.44986C10.9388 2.45028 10.9585 2.51108 10.9202 2.53939L10.624 2.75817L10.7351 3.10922C10.7495 3.15465 10.6977 3.19232 10.6589 3.16454L10.3594 2.95042L10.0598 3.16454C10.021 3.19226 9.96934 3.15465 9.98364 3.10922L10.0948 2.75817L9.79855 2.53939C9.76022 2.51102 9.77995 2.45028 9.82764 2.44986L10.1959 2.44706L10.3123 2.09773C10.3274 2.05255 10.3914 2.05255 10.4064 2.09773Z" fill="#F5F5F5"/>
<path d="M10.4064 3.92981L10.5229 4.27913L10.8911 4.28193C10.9388 4.28235 10.9585 4.34315 10.9202 4.37147L10.624 4.59024L10.7351 4.94129C10.7495 4.98671 10.6977 5.02439 10.6589 4.99661L10.3594 4.78249L10.0598 4.99661C10.021 5.02433 9.96934 4.98677 9.98364 4.94129L10.0948 4.59024L9.79855 4.37147C9.76022 4.34309 9.77995 4.28235 9.82764 4.28193L10.1959 4.27913L10.3123 3.92981C10.3274 3.88456 10.3914 3.88456 10.4064 3.92981Z" fill="#F5F5F5"/>
<path d="M10.4064 5.75085L10.5229 6.10018L10.8911 6.10298C10.9388 6.1034 10.9585 6.1642 10.9202 6.19252L10.624 6.41129L10.7351 6.76234C10.7495 6.80777 10.6977 6.84544 10.6589 6.81766L10.3594 6.60354L10.0598 6.81766C10.021 6.84538 9.96934 6.80777 9.98364 6.76234L10.0948 6.41129L9.79855 6.19252C9.76022 6.16414 9.77995 6.1034 9.82764 6.10298L10.1959 6.10018L10.3123 5.75085C10.3274 5.70561 10.3914 5.70561 10.4064 5.75085Z" fill="#F5F5F5"/>
<path d="M10.4064 7.58284L10.5229 7.93216L10.8911 7.93497C10.9388 7.93538 10.9585 7.99619 10.9202 8.0245L10.624 8.24328L10.7351 8.59433C10.7495 8.63975 10.6977 8.67743 10.6589 8.64965L10.3594 8.43553L10.0598 8.64965C10.021 8.67737 9.96934 8.63975 9.98364 8.59433L10.0948 8.24328L9.79855 8.0245C9.76022 7.99613 9.77995 7.93538 9.82764 7.93497L10.1959 7.93216L10.3123 7.58284C10.3274 7.53765 10.3914 7.53765 10.4064 7.58284Z" fill="#F5F5F5"/>
<path d="M11.8244 1.20349L11.9409 1.55281L12.3091 1.55561C12.3568 1.55603 12.3765 1.61683 12.3382 1.64515L12.042 1.86392L12.1531 2.21498C12.1675 2.2604 12.1157 2.29807 12.0769 2.27029L11.7773 2.05617L11.4778 2.27029C11.439 2.29801 11.3873 2.2604 11.4016 2.21498L11.5127 1.86392L11.2165 1.64515C11.1782 1.61678 11.1979 1.55603 11.2456 1.55561L11.6138 1.55281L11.7303 1.20349C11.7453 1.15824 11.8092 1.15824 11.8244 1.20349Z" fill="#F5F5F5"/>
<path d="M11.8244 3.03535L11.9409 3.38468L12.3091 3.38748C12.3568 3.3879 12.3765 3.4487 12.3382 3.47702L12.042 3.69579L12.1531 4.04684C12.1675 4.09227 12.1157 4.12994 12.0769 4.10216L11.7773 3.88804L11.4778 4.10216C11.439 4.12988 11.3873 4.09227 11.4016 4.04684L11.5127 3.69579L11.2165 3.47702C11.1782 3.44864 11.1979 3.3879 11.2456 3.38748L11.6138 3.38468L11.7303 3.03535C11.7453 2.99017 11.8092 2.99017 11.8244 3.03535Z" fill="#F5F5F5"/>
<path d="M11.8244 4.85652L11.9409 5.20585L12.3091 5.20865C12.3568 5.20907 12.3765 5.26987 12.3382 5.29819L12.042 5.51697L12.1531 5.86802C12.1675 5.91345 12.1157 5.95112 12.0769 5.92334L11.7773 5.70922L11.4778 5.92334C11.439 5.95106 11.3873 5.91345 11.4016 5.86802L11.5127 5.51697L11.2165 5.29819C11.1782 5.26981 11.1979 5.20907 11.2456 5.20865L11.6138 5.20585L11.7303 4.85652C11.7453 4.81134 11.8092 4.81134 11.8244 4.85652Z" fill="#F5F5F5"/>
<path d="M11.8244 6.6886L11.9409 7.03792L12.3091 7.04072C12.3568 7.04114 12.3765 7.10194 12.3382 7.13026L12.042 7.34903L12.1531 7.70009C12.1675 7.74551 12.1157 7.78319 12.0769 7.75541L11.7773 7.54128L11.4778 7.75541C11.439 7.78313 11.3873 7.74551 11.4016 7.70009L11.5127 7.34903L11.2165 7.13026C11.1782 7.10188 11.1979 7.04114 11.2456 7.04072L11.6138 7.03792L11.7303 6.6886C11.7453 6.64335 11.8092 6.64335 11.8244 6.6886Z" fill="#F5F5F5"/>
<path d="M11.8244 8.50969L11.9409 8.85901L12.3091 8.86181C12.3568 8.86223 12.3765 8.92304 12.3382 8.95135L12.042 9.17013L12.1531 9.52118C12.1675 9.56661 12.1157 9.60428 12.0769 9.5765L11.7773 9.36238L11.4778 9.5765C11.439 9.60422 11.3873 9.56661 11.4016 9.52118L11.5127 9.17013L11.2165 8.95135C11.1782 8.92298 11.1979 8.86223 11.2456 8.86181L11.6138 8.85901L11.7303 8.50969C11.7453 8.46438 11.8092 8.46438 11.8244 8.50969Z" fill="#F5F5F5"/>
</g>
<defs>
<clipPath id="clip0_1969_26548">
<rect width="20" height="20" rx="10" fill="white"/>
</clipPath>
</defs>
</svg>
