<svg width="24" height="24" viewBox="0 0 24 24" fill="none" xmlns="http://www.w3.org/2000/svg">
<path d="M0.566625 8.34794C0.199031 9.49956 -4.68667e-05 10.7264 8.276e-09 12C-4.68667e-05 13.2736 0.199078 14.5005 0.566672 15.6521L12 16.174L23.4333 15.6522C23.8009 14.5006 24 13.2736 24 12.0001C24 10.7265 23.8009 9.49956 23.4333 8.34789L12 7.82617L0.566625 8.34794Z" fill="#F0F0F0"/>
<path d="M23.433 8.34826L11.9996 7.82654L0.566256 8.34826C0.457318 8.6897 0.363522 9.03784 0.284912 9.39174H23.7142C23.6357 9.03779 23.5419 8.6896 23.433 8.34826Z" fill="#D80027"/>
<path d="M0.2854 14.6077C0.363916 14.9616 0.457713 15.3097 0.56665 15.6511L0.567775 15.6511L11.9999 16.1729L23.4333 15.6511C23.5422 15.3097 23.636 14.9616 23.7146 14.6077H0.2854Z" fill="#D80027"/>
<path d="M12.0002 24.0005C17.354 24.0005 21.8883 20.4941 23.4335 15.6527H0.566895C2.11213 20.4941 6.64644 24.0005 12.0002 24.0005Z" fill="#6DA544"/>
<path d="M12.0002 -0.00012207C6.64644 -7.51949e-05 2.11222 3.50631 0.566895 8.3477L23.4335 8.34775C21.8884 3.50627 17.3541 -0.000168945 12.0002 -0.00012207Z" fill="#338AF3"/>
<path d="M5.48302 4.95691C5.48302 3.83299 6.27291 2.89408 7.32774 2.66374C7.16564 2.6283 6.99741 2.60913 6.82463 2.60913C5.52798 2.60913 4.47681 3.66025 4.47681 4.95695C4.47681 6.25366 5.52788 7.30478 6.82463 7.30478C6.99741 7.30478 7.1656 7.28556 7.32774 7.25017C6.27296 7.01973 5.48302 6.08083 5.48302 4.95691Z" fill="#F0F0F0"/>
<path d="M8.71482 6.02344L8.87372 6.51258H9.38803L8.97197 6.81492L9.13088 7.30406L8.71482 7.00177L8.29866 7.30406L8.45761 6.81492L8.0415 6.51258H8.55582L8.71482 6.02344Z" fill="#F0F0F0"/>
<path d="M10.3578 6.02344L10.5167 6.51258H11.0311L10.6149 6.81492L10.7739 7.30406L10.3578 7.00177L9.94168 7.30406L10.1006 6.81492L9.68457 6.51258H10.1988L10.3578 6.02344Z" fill="#F0F0F0"/>
<path d="M11.9983 6.02344L12.1572 6.51258H12.6715L12.2554 6.81492L12.4143 7.30406L11.9983 7.00177L11.5821 7.30406L11.7411 6.81492L11.325 6.51258H11.8393L11.9983 6.02344Z" fill="#F0F0F0"/>
<path d="M13.6394 6.02344L13.7983 6.51258H14.3126L13.8965 6.81492L14.0555 7.30406L13.6394 7.00177L13.2232 7.30406L13.3822 6.81492L12.9661 6.51258H13.4804L13.6394 6.02344Z" fill="#F0F0F0"/>
<path d="M15.2823 6.02344L15.4413 6.51258H15.9556L15.5396 6.81492L15.6985 7.30406L15.2823 7.00177L14.8662 7.30406L15.0252 6.81492L14.6091 6.51258H15.1234L15.2823 6.02344Z" fill="#F0F0F0"/>
<path d="M10.3578 4.31665L10.5167 4.80574H11.0311L10.6149 5.10813L10.7739 5.59723L10.3578 5.29493L9.94168 5.59723L10.1006 5.10813L9.68457 4.80574H10.1988L10.3578 4.31665Z" fill="#F0F0F0"/>
<path d="M11.9983 4.31665L12.1572 4.80574H12.6715L12.2554 5.10813L12.4143 5.59723L11.9983 5.29493L11.5821 5.59723L11.7411 5.10813L11.325 4.80574H11.8393L11.9983 4.31665Z" fill="#F0F0F0"/>
<path d="M13.6394 4.31665L13.7983 4.80574H14.3126L13.8965 5.10813L14.0555 5.59723L13.6394 5.29493L13.2232 5.59723L13.3822 5.10813L12.9661 4.80574H13.4804L13.6394 4.31665Z" fill="#F0F0F0"/>
<path d="M15.2823 4.31665L15.4413 4.80574H15.9556L15.5396 5.10813L15.6985 5.59723L15.2823 5.29493L14.8662 5.59723L15.0252 5.10813L14.6091 4.80574H15.1234L15.2823 4.31665Z" fill="#F0F0F0"/>
<path d="M11.9983 2.60901L12.1572 3.0982H12.6715L12.2554 3.40049L12.4143 3.88968L11.9983 3.58738L11.5821 3.88968L11.7411 3.40049L11.325 3.0982H11.8393L11.9983 2.60901Z" fill="#F0F0F0"/>
<path d="M13.6394 2.60901L13.7983 3.0982H14.3126L13.8965 3.40049L14.0555 3.88968L13.6394 3.58738L13.2232 3.88968L13.3822 3.40049L12.9661 3.0982H13.4804L13.6394 2.60901Z" fill="#F0F0F0"/>
<path d="M15.2823 2.60901L15.4413 3.0982H15.9556L15.5396 3.40049L15.6985 3.88968L15.2823 3.58738L14.8662 3.88968L15.0252 3.40049L14.6091 3.0982H15.1234L15.2823 2.60901Z" fill="#F0F0F0"/>
</svg>
